<svg width="2000" height="2000" viewBox="0 0 2000 2000" fill="none" xmlns="http://www.w3.org/2000/svg">
<rect width="2000" height="2000" rx="1000" fill="#7289DA"/>
<g clip-path="url(#clip0)">
<path d="M420.139 1682.79L318.215 1580.86C313.524 1576.17 313.524 1568.56 318.215 1563.88L1265.26 616.829L1384.17 735.742L437.128 1682.79C432.437 1687.48 424.831 1687.48 420.139 1682.79Z" fill="#F0AE82"/>
<path d="M437.128 1682.79L1384.17 735.742L1325.53 677.097L378.483 1624.14C373.791 1628.83 366.185 1628.83 361.497 1624.14L420.142 1682.79C424.833 1687.48 432.439 1687.48 437.128 1682.79Z" fill="#F0AE82"/>
<path d="M437.128 1682.79L1384.17 735.742L1325.53 677.097L378.483 1624.14C373.791 1628.83 366.185 1628.83 361.497 1624.14L420.142 1682.79C424.833 1687.48 432.439 1687.48 437.128 1682.79Z" fill="black" fill-opacity="0.5"/>
<path d="M876.677 945.95L1055.04 1124.31L1148.46 1030.88L970.105 852.521L876.677 945.95Z" fill="white"/>
<path d="M995.708 1064.99L1055.04 1124.33L1148.47 1030.9L1089.14 971.565L995.708 1064.99Z" fill="white"/>
<path d="M995.708 1064.99L1055.04 1124.33L1148.47 1030.9L1089.14 971.565L995.708 1064.99Z" fill="black" fill-opacity="0.5"/>
<path d="M1303.49 1185.9L1245.73 1128.14L1245.18 1127.62L815.098 697.508C791.64 674.078 791.64 636.048 815.098 612.59L1095.38 332.281C1118.84 308.85 1156.87 308.85 1180.33 332.281L1610.41 762.363V762.39L1668.72 820.676C1692.15 844.134 1692.15 882.164 1668.72 905.622L1388.41 1185.9C1364.95 1209.36 1326.92 1209.36 1303.49 1185.9Z" fill="#7289DA"/>
<path d="M1303.49 1185.9L1245.73 1128.14C1269.22 1151.05 1306.86 1150.86 1330.13 1127.62L1610.41 847.309C1633.87 823.851 1633.87 785.821 1610.41 762.391L1668.72 820.677C1692.15 844.135 1692.15 882.165 1668.72 905.623L1388.41 1185.9C1364.95 1209.36 1326.92 1209.36 1303.49 1185.9Z" fill="#7289DA"/>
<path d="M1303.49 1185.9L1245.73 1128.14C1269.22 1151.05 1306.86 1150.86 1330.13 1127.62L1610.41 847.309C1633.87 823.851 1633.87 785.821 1610.41 762.391L1668.72 820.677C1692.15 844.135 1692.15 882.165 1668.72 905.623L1388.41 1185.9C1364.95 1209.36 1326.92 1209.36 1303.49 1185.9Z" fill="black" fill-opacity="0.4"/>
<path d="M451.724 1697.48L1025.32 1123.88L1040.41 1138.97C1044.29 1142.85 1049.55 1145.03 1055.04 1145.03C1060.53 1145.03 1065.8 1142.85 1069.68 1138.97L1148.48 1060.17L1288.86 1200.55C1320.35 1232.04 1371.59 1232.04 1403.08 1200.55L1571.25 1032.38C1579.34 1024.3 1579.34 1011.2 1571.25 1003.11C1563.17 995.024 1550.06 995.024 1541.98 1003.11L1373.81 1171.28C1358.46 1186.63 1333.49 1186.63 1318.14 1171.28L1073.93 927.073L984.742 837.886C984.742 837.886 984.739 837.883 984.736 837.88L829.723 682.867C814.382 667.517 814.379 642.544 829.723 627.197L850.816 606.104C858.899 598.021 858.899 584.914 850.816 576.831C842.733 568.748 829.626 568.748 821.543 576.831L800.45 597.924C784.706 613.668 776.835 634.35 776.835 655.032C776.835 675.713 784.706 696.395 800.45 712.14L940.831 852.521L862.032 931.32C857.989 935.36 855.968 940.659 855.968 945.958C855.968 951.254 857.989 956.553 862.032 960.596L877.122 975.686L426.51 1426.3C422.47 1430.34 420.447 1435.64 420.447 1440.94C420.447 1446.23 422.467 1451.53 426.51 1455.57C434.594 1463.66 447.7 1463.66 455.783 1455.57L906.392 1004.96L996.043 1094.61L428.602 1662.05L338.948 1572.4L392.993 1518.36C401.076 1510.27 401.076 1497.17 392.993 1489.08C384.91 1481 371.803 1481 363.72 1489.08L303.483 1549.32C297.163 1555.68 294 1564.02 294 1572.38C294 1580.75 297.174 1589.13 303.527 1595.52L405.525 1697.52C418.25 1710.17 438.951 1710.17 451.724 1697.48ZM970.099 881.796L1119.2 1030.9L1055.04 1095.06L905.937 945.958L970.099 881.796Z" fill="black"/>
<path d="M1110.02 346.89C1125.37 331.542 1150.34 331.542 1165.69 346.89L1654.11 835.305C1669.46 850.652 1669.46 875.625 1654.11 890.975L1603.73 941.354C1595.65 949.435 1595.65 962.544 1603.73 970.627C1611.81 978.71 1624.92 978.71 1633 970.627L1683.38 920.248C1714.87 888.756 1714.87 837.521 1683.38 806.032L1194.97 317.617C1163.48 286.128 1112.24 286.128 1080.75 317.617L882.37 515.997C878.33 520.037 823 570.199 823 575.498C823 580.797 832.957 576.955 837 580.998C845.083 589.081 846.917 609.081 855 600.998L1110.02 346.89Z" fill="black"/>
</g>
<defs>
<clipPath id="clip0">
<rect width="1413" height="1413" fill="white" transform="translate(1707 294) rotate(90)"/>
</clipPath>
</defs>
</svg>
